<svg width="352" height="111" xmlns="http://www.w3.org/2000/svg">
    <path
        d="M 2.5 103.5 L 6.5 101.5 L 9.5 99.5 L 13.5 95.5 L 18.5 90.5 L 23.5 86.5 L 27.5 84.5 L 30.5 83.5 L 33.5 82.5 L 45.5 83.5 L 48.5 84.5 L 51.5 85.5 L 54.5 86.5 L 60.5 85.5 L 72.5 86.5 L 83.5 84.5 L 86.5 83.5 L 99.5 82.5 L 105.5 81.5 L 135.5 82.5 L 143.5 83.5 L 166.5 84.5 L 170.5 85.5 L 174.5 86.5 L 200.5 87.5 L 211.5 86.5 L 217.5 85.5 L 253.5 84.5 L 262.5 85.5 L 268.5 86.5 L 271.5 87.5 L 288.5 88.5 L 298.5 87.5 L 307.5 88.5 L 301.5 87.5 L 297.5 86.5 L 296.5 84.5 L 295.5 83.5 L 297.5 79.5 L 299.5 77.5 L 304.5 76.5 L 309.5 77.5 L 310.5 78.5 L 309.5 81.5 L 308.5 82.5 L 307.5 83.5 L 306.5 84.5 L 304.5 85.5 L 298.5 84.5 L 300.5 83.5 L 303.5 82.5 L 304.5 81.5 L 305.5 80.5 L 306.5 79.5 L 307.5 78.5 L 306.5 69.5 L 304.5 63.5 L 301.5 57.5 L 298.5 47.5 L 295.5 39.5 L 293.5 33.5 L 292.5 27.5 L 291.5 23.5 L 290.5 20.5 L 289.5 17.5 L 299.5 16.5 L 305.5 14.5 L 311.5 12.5 L 317.5 9.5 L 323.5 7.5 L 329.5 5.5 L 332.5 3.5 L 335.5 2.5 L 337.5 3.5 L 336.5 4.5 L 335.5 5.5 L 334.5 7.5 L 333.5 8.5 L 335.5 21.5 L 338.5 28.5 L 341.5 37.5 L 345.5 44.5 L 347.5 54.5 L 348.5 62.5 L 349.5 69.5 L 348.5 89.5 L 347.5 91.5 L 345.5 93.5 L 344.5 95.5 L 345.5 98.5 L 349.5 99.5 L 347.5 103.5 L 345.5 104.5 L 343.5 105.5 L 339.5 104.5 L 340.5 102.5 L 342.5 101.5 L 348.5 103.5 L 346.5 106.5 L 344.5 107.5 L 341.5 108.5 L 335.5 107.5 L 337.5 105.5 L 338.5 104.5 L 346.5 105.5 L 345.5 106.5 L 343.5 107.5"
        stroke-linecap="round"
        stroke-linejoin="round"
        stroke-width="5"
        stroke="#000000"
        fill="none"
    />
</svg>